<svg id="visual" viewBox="0 0 900 100" width="900" height="100" xmlns="http://www.w3.org/2000/svg" xmlns:xlink="http://www.w3.org/1999/xlink" version="1.1"><rect x="0" y="0" width="900" height="100" fill="#1E2A4A"></rect><path d="M0 30L10 32.8C20 35.7 40 41.3 60 41.3C80 41.3 100 35.7 120 33.2C140 30.7 160 31.3 180 32.2C200 33 220 34 240 37.7C260 41.3 280 47.7 300 50.7C320 53.7 340 53.3 360 51.5C380 49.7 400 46.3 420 46.2C440 46 460 49 480 45.8C500 42.7 520 33.3 540 33.2C560 33 580 42 600 45.2C620 48.3 640 45.7 660 46C680 46.3 700 49.7 720 48.2C740 46.7 760 40.3 780 39.2C800 38 820 42 840 44.2C860 46.3 880 46.7 890 46.8L900 47L900 0L890 0C880 0 860 0 840 0C820 0 800 0 780 0C760 0 740 0 720 0C700 0 680 0 660 0C640 0 620 0 600 0C580 0 560 0 540 0C520 0 500 0 480 0C460 0 440 0 420 0C400 0 380 0 360 0C340 0 320 0 300 0C280 0 260 0 240 0C220 0 200 0 180 0C160 0 140 0 120 0C100 0 80 0 60 0C40 0 20 0 10 0L0 0Z" fill="#283756"></path><path d="M0 41L10 40.8C20 40.7 40 40.3 60 39.7C80 39 100 38 120 37.7C140 37.3 160 37.7 180 35.7C200 33.7 220 29.3 240 26.5C260 23.7 280 22.3 300 23.7C320 25 340 29 360 33C380 37 400 41 420 40.7C440 40.3 460 35.7 480 32.8C500 30 520 29 540 28.3C560 27.7 580 27.3 600 26.3C620 25.3 640 23.7 660 26.2C680 28.7 700 35.3 720 36.5C740 37.7 760 33.3 780 33.5C800 33.7 820 38.3 840 38C860 37.7 880 32.3 890 29.7L900 27L900 0L890 0C880 0 860 0 840 0C820 0 800 0 780 0C760 0 740 0 720 0C700 0 680 0 660 0C640 0 620 0 600 0C580 0 560 0 540 0C520 0 500 0 480 0C460 0 440 0 420 0C400 0 380 0 360 0C340 0 320 0 300 0C280 0 260 0 240 0C220 0 200 0 180 0C160 0 140 0 120 0C100 0 80 0 60 0C40 0 20 0 10 0L0 0Z" fill="#202c46"></path><path d="M0 37L10 37.8C20 38.7 40 40.3 60 36.8C80 33.3 100 24.7 120 21.7C140 18.7 160 21.3 180 24.5C200 27.7 220 31.3 240 32.2C260 33 280 31 300 30C320 29 340 29 360 29C380 29 400 29 420 28.5C440 28 460 27 480 28.3C500 29.7 520 33.3 540 31.8C560 30.3 580 23.7 600 22.8C620 22 640 27 660 30.3C680 33.7 700 35.3 720 34.8C740 34.3 760 31.7 780 30.7C800 29.7 820 30.3 840 31.2C860 32 880 33 890 33.5L900 34L900 0L890 0C880 0 860 0 840 0C820 0 800 0 780 0C760 0 740 0 720 0C700 0 680 0 660 0C640 0 620 0 600 0C580 0 560 0 540 0C520 0 500 0 480 0C460 0 440 0 420 0C400 0 380 0 360 0C340 0 320 0 300 0C280 0 260 0 240 0C220 0 200 0 180 0C160 0 140 0 120 0C100 0 80 0 60 0C40 0 20 0 10 0L0 0Z" fill="#182237"></path><path d="M0 21L10 19.5C20 18 40 15 60 16.7C80 18.3 100 24.7 120 28C140 31.3 160 31.7 180 31.8C200 32 220 32 240 31C260 30 280 28 300 28C320 28 340 30 360 30C380 30 400 28 420 28C440 28 460 30 480 30.3C500 30.7 520 29.3 540 27C560 24.7 580 21.3 600 18.7C620 16 640 14 660 15.5C680 17 700 22 720 24C740 26 760 25 780 22.7C800 20.3 820 16.7 840 16.5C860 16.3 880 19.7 890 21.3L900 23L900 0L890 0C880 0 860 0 840 0C820 0 800 0 780 0C760 0 740 0 720 0C700 0 680 0 660 0C640 0 620 0 600 0C580 0 560 0 540 0C520 0 500 0 480 0C460 0 440 0 420 0C400 0 380 0 360 0C340 0 320 0 300 0C280 0 260 0 240 0C220 0 200 0 180 0C160 0 140 0 120 0C100 0 80 0 60 0C40 0 20 0 10 0L0 0Z" fill="#101828"></path><path d="M0 23L10 22.2C20 21.3 40 19.7 60 19.3C80 19 100 20 120 19.5C140 19 160 17 180 16.3C200 15.7 220 16.3 240 18.2C260 20 280 23 300 23C320 23 340 20 360 18.2C380 16.3 400 15.7 420 15.7C440 15.7 460 16.3 480 16.7C500 17 520 17 540 16.2C560 15.3 580 13.7 600 14C620 14.3 640 16.7 660 19C680 21.3 700 23.7 720 23.2C740 22.7 760 19.3 780 17.7C800 16 820 16 840 16.2C860 16.3 880 16.7 890 16.8L900 17L900 0L890 0C880 0 860 0 840 0C820 0 800 0 780 0C760 0 740 0 720 0C700 0 680 0 660 0C640 0 620 0 600 0C580 0 560 0 540 0C520 0 500 0 480 0C460 0 440 0 420 0C400 0 380 0 360 0C340 0 320 0 300 0C280 0 260 0 240 0C220 0 200 0 180 0C160 0 140 0 120 0C100 0 80 0 60 0C40 0 20 0 10 0L0 0Z" fill="#101625"></path><path d="M0 15L10 14C20 13 40 11 60 11.8C80 12.7 100 16.3 120 17.2C140 18 160 16 180 14.2C200 12.3 220 10.7 240 9C260 7.3 280 5.7 300 6.3C320 7 340 10 360 10.2C380 10.3 400 7.7 420 8.5C440 9.3 460 13.7 480 14C500 14.3 520 10.7 540 8.3C560 6 580 5 600 5.8C620 6.7 640 9.3 660 9.8C680 10.3 700 8.7 720 8.7C740 8.7 760 10.3 780 10.2C800 10 820 8 840 8.5C860 9 880 12 890 13.5L900 15L900 0L890 0C880 0 860 0 840 0C820 0 800 0 780 0C760 0 740 0 720 0C700 0 680 0 660 0C640 0 620 0 600 0C580 0 560 0 540 0C520 0 500 0 480 0C460 0 440 0 420 0C400 0 380 0 360 0C340 0 320 0 300 0C280 0 260 0 240 0C220 0 200 0 180 0C160 0 140 0 120 0C100 0 80 0 60 0C40 0 20 0 10 0L0 0Z" fill="#0f1522"></path><path d="M0 2L10 3C20 4 40 6 60 6.8C80 7.7 100 7.3 120 7.7C140 8 160 9 180 8.2C200 7.3 220 4.7 240 3.7C260 2.7 280 3.3 300 4.8C320 6.3 340 8.7 360 8.3C380 8 400 5 420 4C440 3 460 4 480 5.2C500 6.3 520 7.7 540 7.3C560 7 580 5 600 3.5C620 2 640 1 660 1C680 1 700 2 720 3.8C740 5.7 760 8.3 780 9.2C800 10 820 9 840 9.2C860 9.3 880 10.7 890 11.3L900 12L900 0L890 0C880 0 860 0 840 0C820 0 800 0 780 0C760 0 740 0 720 0C700 0 680 0 660 0C640 0 620 0 600 0C580 0 560 0 540 0C520 0 500 0 480 0C460 0 440 0 420 0C400 0 380 0 360 0C340 0 320 0 300 0C280 0 260 0 240 0C220 0 200 0 180 0C160 0 140 0 120 0C100 0 80 0 60 0C40 0 20 0 10 0L0 0Z" fill="#0e131f"></path></svg>